<?xml version="1.0" encoding="UTF-8" standalone="no"?>
<!-- Created with Inkscape (http://www.inkscape.org/) -->

<svg
   xmlns:dc="http://purl.org/dc/elements/1.1/"
   xmlns:cc="http://creativecommons.org/ns#"
   xmlns:rdf="http://www.w3.org/1999/02/22-rdf-syntax-ns#"
   xmlns:svg="http://www.w3.org/2000/svg"
   xmlns="http://www.w3.org/2000/svg"
   xmlns:sodipodi="http://sodipodi.sourceforge.net/DTD/sodipodi-0.dtd"
   xmlns:inkscape="http://www.inkscape.org/namespaces/inkscape"
   id="svg2985"
   version="1.1"
   inkscape:version="0.48.5 r10040"
   width="1280"
   height="1280"
   sodipodi:docname="flieger.svg">
  <metadata
     id="metadata2991">
    <rdf:RDF>
      <cc:Work
         rdf:about="">
        <dc:format>image/svg+xml</dc:format>
        <dc:type
           rdf:resource="http://purl.org/dc/dcmitype/StillImage" />
      </cc:Work>
    </rdf:RDF>
  </metadata>
  <defs
     id="defs2989" />
  <sodipodi:namedview
     pagecolor="#007aff"
     bordercolor="#666666"
     borderopacity="1"
     objecttolerance="10"
     gridtolerance="10"
     guidetolerance="10"
     inkscape:pageopacity="1"
     inkscape:pageshadow="2"
     inkscape:window-width="1920"
     inkscape:window-height="1027"
     id="namedview2987"
     showgrid="false"
     inkscape:zoom="0.46403883"
     inkscape:cx="979.51683"
     inkscape:cy="484.49294"
     inkscape:window-x="-8"
     inkscape:window-y="-8"
     inkscape:window-maximized="1"
     inkscape:current-layer="svg2985" />
  <path
     style="fill:#ffffff;stroke-width:0.1;stroke-miterlimit:4;stroke-dasharray:none;marker-start:none"
     d="m 1217.3125,356.46875 c -6.4229,1.13021 -6.5557,9.50765 -6.875,14.6875 -0.8121,13.55203 -8.1623,25.38229 -11.75,38.21875 -6.3645,12.0703 -19.0513,18.85955 -29.2203,27.51872 -15.0341,10.31255 -31.0041,19.69864 -46.1147,30.17055 -18.3305,12.86068 -38.4636,23.0748 -57.6147,34.58458 -11.2964,5.89789 -23.4864,9.92683 -33.981,17.40979 -10.1755,5.31278 -20.6482,10.09018 -31.0616,15.02816 -8.20014,2.19141 -14.57995,7.49561 -22.66395,10.13195 -7.71872,4.67633 -16.15416,7.71947 -24.1875,11.65625 -12.56545,6.80426 -26.10657,12.02888 -38.81149,18.61241 -11.35356,5.57474 -22.99724,10.33739 -34.95204,14.24878 -12.46437,5.67812 -25.4559,10.3082 -37.92397,15.73256 -6.5518,2.1053 -12.4586,6.19717 -19.3125,7.78125 -9.49498,3.96606 -18.60991,8.87365 -28.69537,11.04474 -10.93174,3.50465 -20.7891,10.9248 -32.46088,12.01776 -23.40821,-9.46983 -45.53055,-22.21566 -68.25,-33.375 -11.06373,-5.64348 -20.78728,-13.31279 -32.46875,-17.75 -26.32626,-12.02981 -52.50724,-24.16446 -78.78125,-36.0625 -6.40422,-1.93246 -12.59194,-4.80725 -18.75,-7.03125 -7.80025,-5.2867 -16.93103,-7.22271 -25.375,-11.125 -18.32984,-5.46359 -34.24916,-17.75299 -47.34375,-31.25 -8.49576,-16.92217 -1.88959,-37.26136 8.14374,-52.06373 4.0009,-4.97229 11.5614,-4.9111 17.16801,-7.12473 15.88661,-3.49016 31.48121,-7.94064 47.31325,-11.37404 11.78472,-2.81618 21.34019,-10.48956 28.68204,-19.79051 4.46573,-5.90123 11.9446,-12.76518 10.06796,-20.99074 -2.62263,-5.64863 -10.44389,-3.60259 -15.40625,-3.59375 -14.44301,1.12926 -28.31286,5.14454 -42.19874,8.51156 -23.10935,3.91572 -45.74745,10.75037 -69.02001,13.48844 -11.1802,0.63814 -21.16168,-7.10065 -32.1875,-7.15625 -7.45955,2.18143 -5.94478,13.16441 -11.96875,16.40625 -21.85633,7.07232 -44.75134,9.72056 -67.1875,13.875 -7.54239,1.30484 -17.53608,2.37272 -21.40625,9.9375 -1.52709,6.77831 7.10031,8.8225 11.65625,11.15625 13.57518,8.42455 29.68667,13.05435 45.78125,11.4375 5.86385,-0.22871 12.22257,-0.98814 17.625,-2.375 -5.55405,10.24319 -11.12098,20.61852 -17.0625,30.75 -2.30346,4.43757 -6.00613,12.01023 -0.375,15.53125 10.66613,6.31668 21.73149,11.44933 33.5,15.25 18.2218,7.96098 36.35496,16.91199 54.6875,24.125 15.61114,6.81474 30.70941,14.90727 46.59375,21.1875 17.61513,8.35337 35.47953,16.4744 52.20693,26.35346 18.53525,9.16319 37.07778,19.42339 54.57432,30.08404 11.85888,5.94482 21.67999,14.67266 32.90625,21.5 5.55811,4.87388 12.41905,8.89061 16.5,15.0625 -19.32292,6.21447 -38.23852,14.00179 -57.03125,21.78125 -13.28039,4.96999 -26.60203,10.10859 -39.4375,15.71875 -10.40137,1.86949 -19.62395,7.46857 -29.9929,9.81458 -17.90651,6.09254 -34.76767,14.67724 -53.1321,19.62292 -16.18644,5.35248 -31.85903,11.34052 -48.05911,16.66716 -18.73142,5.64019 -37.49774,10.55606 -55.65964,17.95784 -14.60741,5.34554 -29.69899,9.22879 -44.65625,12.78125 -5.97029,2.54154 -11.74073,4.89853 -17.96875,6.5 -18.47787,6.43579 -38.01291,10.43205 -56.9375,15.84375 -11.58615,3.37196 -22.63135,7.79784 -34.79611,8.83658 -16.92556,4.13223 -33.99875,8.16021 -50.64775,13.30627 -12.66662,4.58611 -26.30256,6.30558 -39.57838,9.11607 -16.18605,2.69549 -32.35528,6.74176 -48.57151,9.55358 -9.54664,1.66746 -19.23451,6.16219 -28.65625,6.25 -6.708326,-11.81818 -6.007827,-28.17454 -17.21875,-37.375 -5.584247,-3.98967 -12.635435,1.82792 -12.625,8.0625 -2.29843,14.2771 -8.02155,28.26621 -7.4375,42.875 3.56423,8.6373 13.910691,11.43997 21.25,15.9375 6.421508,2.95608 13.162519,7.02515 20.4375,4.375 19.86701,-4.03217 39.86418,-6.06331 60,-7.65625 24.28559,-1.9049 48.47748,-5.03005 72.74195,-7.34538 37.37033,-4.44158 75.43029,-5.71099 112.4143,-12.74837 15.23864,-2.77265 30.7383,-3.90842 45.875,-6.5625 10.51293,-2.72565 21.68298,-2.9798 31.90625,-7.15625 24.98989,-5.97247 50.51274,-9.95627 75.25885,-16.76064 19.12731,-6.02571 39.71401,-8.00489 58.6474,-14.67686 11.88779,-2.98164 23.38953,-6.71072 35.3125,-9.03125 18.85755,-6.59137 39.0371,-10.49934 57.9375,-17.3125 14.74077,-3.20051 27.98105,-11.24815 42.8125,-14.65625 20.26297,-5.89743 39.57681,-14.47821 59.34468,-21.86652 8.41198,-3.25418 16.84929,-7.89885 25.68657,-8.94598 18.1474,25.11629 36.91874,50.37515 61.71622,69.34535 6.31161,5.13319 12.92802,10.21936 19.81503,14.21715 8.80268,7.39593 18.94855,13.06156 28.09375,19.875 19.61694,12.24507 38.89621,25.32026 60.34281,34.06799 21.0617,9.25679 42.72572,18.5209 65.62414,21.77315 7.8298,-0.0936 17.909,0.68252 23.3143,-6.09114 2.8695,-8.54009 -3.0217,-17.10905 -5.885,-24.87799 -6.5757,-14.73148 -14.3338,-29.13516 -25.52125,-40.77826 -17.52948,-23.16949 -38.95774,-43.18061 -59.875,-63.25 -10.94187,-8.80132 -21.89784,-17.85257 -32.51311,-27.10745 -12.76615,-8.97152 -24.31448,-19.47571 -37.92439,-27.0488 -3.55901,-4.14734 -6.7999,-8.78286 -12.125,-10.90625 -1.9157,-1.81623 2.97219,-1.69744 3.84375,-2.46875 15.35305,-6.91675 31.56251,-12.24345 47.25,-18.6875 15.76976,-5.13289 31.05635,-12.11125 46.90625,-17.03125 15.6951,-7.17652 30.76536,-16.00685 46.80426,-22.72325 21.00219,-10.34369 42.48639,-20.41225 62.10199,-33.02675 11.5822,-5.62285 21.0962,-14.87228 31.5938,-22.15625 15.6502,-14.31536 32.6508,-27.19136 49.0898,-40.60921 17.081,-12.19995 32.1923,-26.8893 46.4102,-41.98454 12.7384,-16.35234 28.5769,-30.30766 40.9687,-46.875 4.6612,-7.48271 11.1891,-14.64067 12.9063,-23.46875 -4.2291,-17.78746 -8.583,-35.86324 -13.375,-53.4375 -1.8656,-5.45049 -3.1617,-13.26272 -10.7813,-12.09375 z m 2.875,38 c 1.3021,5.27563 3.6247,11.45586 3.5937,16.53125 -3.2253,0.53663 -6.5761,0.65987 -9.8124,0.125 1.2593,-6.05988 3.4529,-11.86867 5.875,-17.59375 l 0.3437,0.9375 z m -639.03125,5.1875 c 2.07108,0.19182 -1.37207,3.5248 -1.9375,4.5 -5.81183,7.1048 -14.33569,11.95266 -23.6875,12.46875 -12.33172,2.92662 -24.461,6.53388 -36.94436,8.59451 -10.73457,2.77648 -23.36253,4.09493 -30.22593,13.83509 -2.22725,1.59369 -3.52503,7.00368 -6.17824,2.91508 -4.36603,-3.22757 -8.04553,-8.54815 -14.14869,-6.61561 -12.01024,0.30145 -24.51176,0.0648 -35.53403,5.33343 -14.24369,3.25439 -28.64485,8.0312 -43.625,5.875 -4.57733,-1.02135 -9.99012,-2.57761 -13.75,-4.28125 20.11139,-3.19368 40.08686,-7.97458 59.90625,-12.1875 22.13917,-3.80203 43.61957,-10.71259 65.69071,-14.79765 15.8314,-4.60111 32.42654,-6.30045 48.40304,-10.3586 10.73387,-1.46842 21.36712,-3.49402 32.03125,-5.28125 z M 449.125,410.75 c 3.6667,-0.32972 -1.20338,1.9592 -1.21875,1.1875 0.36349,-0.46678 0.5405,-1.15697 1.21875,-1.1875 z m 765.2812,17.5 c 3.2104,0.51421 9.4234,-0.41074 10.9688,1.3125 -3.3696,5.77728 -9.4724,9.08844 -12.875,14.9375 -15.9968,17.32596 -34.0258,32.92455 -50.0569,50.29479 -8.2106,7.85594 -18.0913,13.53219 -26.3209,21.52035 -17.9753,13.88113 -35.8138,28.214 -53.81,41.95488 -17.552,12.23364 -36.1407,23.00436 -54.531,34.01123 -13.2435,6.49122 -25.53,14.86631 -39.10904,20.86154 -21.29433,10.25923 -42.57552,21.07974 -64.39091,30.10721 -6.71769,2.61172 -13.54264,4.52965 -20.28125,6.6875 -7.5517,4.21661 -16.027,5.91412 -23.5625,10.03125 -6.39751,2.18244 -13.17807,3.5616 -19.3125,6.375 -11.1382,1.76041 -21.83055,9.52737 -33.4375,7.375 -7.58995,-5.13656 -16.6079,-7.60243 -23.9375,-13.21875 -6.90873,-4.54564 -15.58105,-7.77048 -21.90625,-12.4375 4.06088,-2.95983 9.7978,-3.64784 14.08611,-6.61571 11.45436,-4.94565 21.62039,-12.3916 33.32014,-16.54054 11.56916,-5.18987 21.72003,-14.08484 34.40625,-16.46875 C 871.89467,604.46248 881.13589,602.62495 889,598 c 42.49005,-16.86003 84.36499,-35.45905 125.2055,-56.00676 35.0758,-16.7044 69.7036,-35.27007 103.2798,-54.52477 11.2533,-5.95306 22.4984,-12.00256 33.2022,-18.81222 16.1065,-12.20654 32.7799,-24.10108 48.1556,-37.54604 3.8051,-5.12785 10.1506,-2.39008 15.5631,-2.86021 z m -746.62495,21.59375 c 6.5944,0.5254 7.41425,8.11779 6.9375,13.3125 -0.47745,10.56467 -3.52976,21.08395 -1.5,31.75 0.56078,7.92878 4.93366,15.20959 11.6875,19.25 15.36879,17.12273 38.8297,22.49438 58.96875,31.6875 26.86787,12.21532 54.71463,22.53884 81.1023,36.00737 12.90594,5.55762 25.13348,12.23296 37.4602,18.74263 15.21977,6.32111 29.09648,15.65932 44.15991,22.65226 24.8529,12.62142 49.42656,26.09904 74.38165,38.6565 6.17215,3.64105 13.41707,6.50816 18.42719,11.56624 -2.49514,5.25913 -6.31611,10.71398 -4.5625,17.09375 1.04419,11.91001 3.38081,23.88522 7.6875,34.90625 4.42902,9.03836 12.75792,15.7507 17.78125,24.53125 6.72967,7.28242 14.93333,13.01185 21.84375,20.1875 14.87129,12.85943 30.46446,24.97364 46.49962,36.3747 12.23834,9.18139 24.57597,18.25791 35.52211,29.05264 6.39025,5.63335 12.93362,11.15744 19.79077,16.07266 8.07751,3.0833 16.11333,-4.40225 16.78125,-12.3125 2.9265,-9.28989 13.78705,-16.04714 23.375,-13.3125 10.04872,11.75575 16.1345,26.18027 24.5,38.96875 0.8461,2.87241 3.5266,6.96722 1.875,9.625 -10.95941,2.02853 -21.51896,-4.08192 -32.05451,-6.68419 -19.03823,-6.00267 -37.80624,-12.81973 -55.07049,-22.75331 -6.41395,-2.68532 -11.6704,-6.55697 -16.9375,-10.71875 -14.09121,-7.73837 -28.01255,-15.91325 -41.01532,-25.6235 -12.21726,-7.98785 -23.094,-17.89187 -35.10968,-26.15775 -11.62969,-10.13708 -22.18851,-21.33071 -31.375,-33.59375 -7.30753,-7.11895 -11.68801,-16.34044 -18.78125,-23.6875 6.83687,-4.12452 16.07297,-9.99132 15.1875,-19.15625 -2.72109,-11.99819 -12.88011,-20.54567 -19.9375,-30.03125 -2.32803,-3.74818 -8.1978,-6.1726 -11,-1.625 -1.38474,5.05147 5.23107,8.13799 6.875,12.46875 3.00118,5.44523 7.48112,10.4571 10.125,15.8125 -7.28415,7.03121 -17.94866,9.60813 -26.9375,13.90625 -17.32883,6.88114 -34.44864,15.0643 -52.5,19.375 -22.85635,9.76547 -47.33157,15.39468 -70.53069,24.54122 -20.09646,6.70297 -40.76295,12.11362 -61.1838,17.93996 -27.75232,5.45416 -53.9874,16.94511 -81.76374,21.60132 -13.79576,3.90075 -28.54598,5.43453 -42.33427,9.13625 -14.70563,2.2247 -28.37508,8.84937 -43.15625,10.84375 -18.12143,5.05184 -37.07223,6.12238 -55.53125,9.21875 -18.41184,3.63863 -37.28775,4.94955 -55.66622,8.94724 -23.29167,2.7637 -46.8602,4.34637 -70.30253,5.92776 -16.73769,1.6485 -32.78136,6.81603 -49.59375,7.875 -26.09072,2.95147 -52.22896,6.61342 -77.96875,11.46875 -3.935134,1.25357 -3.358472,-4.47808 -4.21875,-6.8125 0.06309,-3.57253 5.754826,-1.61567 7.9375,-2.6875 19.24166,-2.76067 37.85335,-8.25959 57,-11.375 13.20778,-3.46738 27.22944,-4.85993 40.5,-8.6875 29.52475,-7.90674 59.48788,-14.58495 88.8526,-22.57314 8.28276,-2.76742 17.28382,-2.72067 25.49115,-6.27061 15.99714,-3.63414 31.97688,-7.70898 47.15625,-13.90625 24.95072,-7.31866 50.04746,-15.7459 74.77499,-23.7394 26.53156,-10.45733 54.6867,-16.35736 81.23325,-26.61677 28.78454,-9.52816 57.27028,-20.1444 85.89943,-29.83595 27.67434,-10.23105 56.64373,-17.34142 84.21733,-27.74538 10.2236,-3.55107 20.86917,-6.58107 30.8125,-10.875 3.37148,-4.30634 1.76946,-11.19627 -0.75,-15.65625 -6.84993,-8.73097 -18.07856,-12.57288 -25.46875,-20.78125 -20.29601,-15.32348 -42.19411,-28.63506 -64.15625,-41.28125 -13.14727,-7.87246 -26.79855,-14.87464 -40.1875,-22.09375 -18.02415,-6.52741 -33.76979,-17.96954 -52,-24.0625 -9.52073,-4.5115 -19.58245,-7.12032 -28.5625,-12.71875 -15.25176,-6.45843 -30.40935,-13.37248 -45.1875,-20.78125 -5.96506,-3.23834 -13.29059,-4.70198 -18.75,-8.53125 6.1996,-16.79572 15.52963,-33.1042 23.80065,-49.15401 1.82761,-1.8304 2.6226,-7.34311 5.44935,-7.65849 z m -17.75,1.625 c -7.17134,13.54327 -14.66419,26.9507 -21.48432,40.59364 -1.97258,2.76456 -3.54245,7.42311 -6.32818,8.90636 -2.13528,-1.558 -8.15762,-2.70168 -5.46875,-6.3125 6.1067,-13.70184 12.80454,-27.8055 22.03125,-39.5625 3.02884,-2.55591 7.40359,-3.33033 11.25,-3.625 z m 362.125,231.15625 c 10.20683,2.48333 17.71257,11.21129 27.40625,15.21875 11.04629,7.35753 20.69199,16.48763 31.875,23.65625 13.22042,10.12425 25.99529,20.2987 39.15883,30.50225 12.45228,10.54376 25.14187,20.68887 36.29302,32.67883 7.96637,8.47979 16.86237,16.64125 23.17315,26.10017 -8.78907,4.39451 -17.90624,9.56344 -22.25407,18.88116 -1.10979,1.79933 -2.47121,6.13897 -4.80843,2.80634 -12.34788,-7.4114 -21.6833,-18.55686 -33.40625,-26.875 -11.4887,-8.67469 -24.14957,-15.91231 -34.25,-26.09375 -12.41405,-9.93119 -24.54969,-20.63765 -36.5,-31.15625 -9.94522,-10.7863 -23.15191,-20.09882 -27.15625,-34.75 0.32791,-4.60693 -2.19335,-8.42707 -4.59375,-12.03125 0.0456,-6.01743 -1.48014,-13.83157 3.25,-18.40625 0.58832,-0.20649 1.1636,-0.51859 1.8125,-0.53125 z M 67.9375,839.9375 c 1.315713,2.65997 2.578579,6.33084 2.59375,8.8125 -2.950981,-2.66 -5.195313,-5.40892 -2.59375,-8.8125 z"
     id="path3033"
     inkscape:connector-curvature="0" />
</svg>
